<?xml version="1.0" encoding="utf-8"?>
<?xml-stylesheet type="text/xsl" href="rss1.xsl"?>
<rss version="2.0" xmlns:atom="http://www.w3.org/2005/Atom" xmlns:content="http://purl.org/rss/1.0/modules/content/" xmlns:dc="http://purl.org/dc/elements/1.1/" xmlns:media="http://search.yahoo.com/mrss/">
<channel>
 <title>sharemania</title>
 <link>http://www.sharemania.us/</link>
 <atom:link href="http://www.gettyimg.com/" rel="self" type="application/rss+xml" />

 
                <item>
                <title><![CDATA[【Albums (lossless)】FLAC - Aurora - 2016 - All My Demons Greetings Me As a Friend (2023 Vinyl Rip) [24bit-192kHz]]]></title>
                <link><![CDATA[https://sharemania.us/threads/aurora-2016-all-my-demons-greetings-me-as-a-friend-2023-vinyl-rip-24bit-192khz.283448/]]></link>
                <description><![CDATA[<article>
				<blockquote class="messageText SelectQuoteContainer ugc baseHtml">
					
					<div style="text-align: center"><img src="https://static.qobuz.com/images/covers/bc/bx/kc1cqwcpibxbc_600.jpg" class="bbCodeImage LbImage" alt="[​IMG]" data-url="https://static.qobuz.com/images/covers/bc/bx/kc1cqwcpibxbc_600.jpg" style=""> <br>
<br>
<b>Artist</b>: Aurora <br>
<b>Album</b>: All My Demons Greetings Me As a Friend (2023 Vinyl Rip)<br>
<b>Date</b>: 11 March 2016<br>
<b>Genre</b>: Alternative / Indie Pop<br>
<b>Quality</b>: 24bit-192kHz<br>
<b>Country</b>: Norway<br>
<b>Size</b>: 1,8GB<br>
<br>
<b>Tracklist</b>:<br>
<br>
1-Runaway 04:08<br>
2-Conqueror 03:27<br>
3-Running with the Wolves 03:14<br>
4-Lucky 04:13<br>
5-Winter Bird 04:04<br>
6-I Went Too Far 03:27<br>
7-Through the Eyes of a Child 04:34<br>
8-Warrior 03:43<br>
9-Murder Song (5, 4, 3, 2, 1) 03:20<br>
10-Home 03:32<br>
11-Under the Water 04:24<br>
12-Black Water Lilies 04:42<br>
<br>
<b><span style="font-size: 22px"><span style="color: #660000">userdrive</span></span></b>:<br>
<br>




<div class="bbCodeBlock bbCodeVfcHH HiddenContent">
	<div class="attribution type">Hidden Content:</div>
	<blockquote>You must either reply or click 'Like' to see the hidden information contained here.</blockquote>
</div><b><span style="font-size: 22px"><span style="color: #006633">Filedot</span></span></b>:<br>
<br>




<div class="bbCodeBlock bbCodeVfcHH HiddenContent">
	<div class="attribution type">Hidden Content:</div>
	<blockquote>You must either reply or click 'Like' to see the hidden information contained here.</blockquote>
</div></div>
					<div class="messageTextEndMarker">&nbsp;</div>
				</blockquote>
			</article>]]></description>
                <author><![CDATA[XRB80]]></author>
                </item>

                
                <item>
                <title><![CDATA[【Singles (lossless)】FLAC - Braison Cyrus, Miley Cyrus - Know This / Qobuz FLAC / 16bits 44.1kHz / 1 041 kb/s]]></title>
                <link><![CDATA[https://sharemania.us/threads/braison-cyrus-miley-cyrus-know-this-qobuz-flac-16bits-44-1khz-1-041-kb-s.283447/]]></link>
                <description><![CDATA[<article>
				<blockquote class="messageText SelectQuoteContainer ugc baseHtml">
					
					<div style="text-align: center"><img src="https://is1-ssl.mzstatic.com/image/thumb/Music221/v4/7e/07/88/7e0788ea-3b92-28aa-11d4-82690de1eda1/cover.jpg/1200x630bb.jpg" class="bbCodeImage LbImage" alt="[​IMG]" data-url="https://is1-ssl.mzstatic.com/image/thumb/Music221/v4/7e/07/88/7e0788ea-3b92-28aa-11d4-82690de1eda1/cover.jpg/1200x630bb.jpg" style=""> <br>
<b>Source: Qobuz<br>
</b>​</div><b><br>



<div class="ToggleTriggerAnchor bbCodeSpoilerContainer">
	<button type="button" class="button bbCodeSpoilerButton ToggleTrigger Tooltip JsOnly" data-target="&gt; .SpoilerTarget"><span>Spoiler: <span class="SpoilerTitle">MediaInfo</span></span></button>
	<div class="SpoilerTarget bbCodeSpoilerText">Format                      : FLAC<br>
Format/Info                 : Free Lossless Audio Codec<br>
File size                   : 27.3 MiB<br>
Duration                    : 3 min 39 s<br>
Overall bit rate mode       : Variable<br>
Overall bit rate            : 1 044 kb/s<br>
Title                       : Know This (Feat. Miley Cyrus)<br>
Album                       : Know This (Feat. Miley Cyrus)<br>
Album/Performer             : Braison Cyrus / Miley Cyrus<br>
Part                        : 1<br>
Part/Total                  : 1<br>
Track name/Position         : 1<br>
Track name/Total            : 1<br>
Performer                   : Braison Cyrus / Miley Cyrus<br>
Composer                    : Braison Cyrus / Jordan Lindley<br>
Producer                    : Billion Streams Entertainment<br>
Label                       : Billion Streams Entertainment<br>
Genre                       : Country<br>
Recorded date               : 2025-09-05<br>
ISRC                        : CZEE52500005<br>
Copyright                   : 2025 Billion Streams Entertainment 2025 Billion Streams Entertainment<br>
Cover                       : Yes<br>
Cover type                  : Cover<br>
Cover MIME                  : image/jpeg<br>
PRODUCER                    : Braison Cyrus / Ryan Rasmussen<br>
INVOLVEDPEOPLE              : Miley Cyrus, FeaturedArtist - Braison Cyrus, Composer, Lyricist, Producer, MainArtist - Jordan Lindley, Composer, Lyricist - Ryan Rasmussen, Producer<br>
UPC                         : 3617399461953<br>
MEDIATYPE                   : single<br>
ITUNESADVISORY              : 1<br>
URL                         : <a href="https://www.qobuz.com/fr-fr/album/know-this-braison-cyrus/ef5x132ag4qda" target="_blank" class="externalLink" rel="nofollow">https://www.qobuz.com/fr-fr/album/know-this-braison-cyrus/ef5x132ag4qda</a><br>
<br>
Audio<br>
Format                      : FLAC<br>
Format/Info                 : Free Lossless Audio Codec<br>
Duration                    : 3 min 39 s<br>
Bit rate mode               : Variable<br>
Bit rate                    : 1 041 kb/s<br>
Channel(s)                  : 2 channels<br>
Channel layout              : L R<br>
Sampling rate               : 44.1 kHz<br>
Bit depth                   : 16 bits<br>
Compression mode            : Lossless<br>
Stream size                 : 27.3 MiB (100%)<br>
MD5 of the unencoded conten : 00000000000000000000000000000000<br>
<br>
Image<br>
Type                        : Cover<br>
Format                      : JPEG<br>
Muxing mode                 : FLAC Picture<br>
Width                       : 600 pixels<br>
Height                      : 600 pixels<br>
Color space                 : YUV<br>
Chroma subsampling          : 4:4:4<br>
Bit depth                   : 8 bits<br>
Compression mode            : Lossy<br>
Stream size                 : 74.5 KiB (0%)<br>
Color range                 : Full<br>
Color primaries             : BT.709<br>
Transfer characteristics    : sRGB/sYCC<br>
Matrix coefficients         : Identity<br>
ColorSpace_ICC              : RGB<br>
colour_primaries_ICC_Descri : sRGB IEC61966-2.1</div>
</div></b><br>
<div style="text-align: center"><b><br>
<br>
Download (Google Drive)<br>




<div class="bbCodeBlock bbCodeVfcHH HiddenContent">
	<div class="attribution type">Hidden Content:</div>
	<blockquote>You must reply before you can see the hidden data contained here.</blockquote>
</div></b>​</div>
					<div class="messageTextEndMarker">&nbsp;</div>
				</blockquote>
			</article>]]></description>
                <author><![CDATA[narxerino]]></author>
                </item>

                </channel></rss>